<svg xmlns="http://www.w3.org/2000/svg" width="36" height="27" viewBox="0 0 36 27">
  <g fill="none" fill-rule="evenodd">
    <path fill="#1CFFBD" d="M17.9916867,9 L27,18.3877784 L19.2491284,26.4651467 C18.5638452,27.1792968 17.4516012,27.1780668 16.7652038,26.4627557 L9,18.3704514 L17.9916867,9 L17.9916867,9 Z"/>
    <path fill="#CC9DFC" d="M26.6286257,0.534853258 C27.3031007,-0.179296785 28.3978025,-0.178066779 29.0733741,0.537244314 L35.4926026,7.33407452 C36.1683248,8.04954511 36.1691855,9.20864081 35.4948608,9.92263166 L27.8662352,18 L19,8.6122216 L26.6286257,0.534853258 L26.6286257,0.534853258 Z"/>
    <path fill="#1CE9FF" d="M6.91251973,0.534853258 C7.58699477,-0.179296785 8.68169655,-0.178066779 9.35726814,0.537244314 L17,8.62954862 L8.15012923,18 L0.507397376,9.9076957 C-0.168324846,9.19222511 -0.16918553,8.0331294 0.505139157,7.31913856 L6.91251973,0.534853258 L6.91251973,0.534853258 Z"/>
  </g>
</svg>
