<?xml version="1.0" encoding="UTF-8"?>
<svg width="96px" height="96px" viewBox="0 0 96 96" version="1.1" xmlns="http://www.w3.org/2000/svg" xmlns:xlink="http://www.w3.org/1999/xlink">
    <!-- Generator: sketchtool 42 (36781) - http://www.bohemiancoding.com/sketch -->
    <title>3F0205A0-E8C7-4BDC-B0C3-7B6679FDBBAE</title>
    <desc>Created with sketchtool.</desc>
    <defs>
        <filter x="-50%" y="-50%" width="200%" height="200%" filterUnits="objectBoundingBox" id="filter-1">
            <feOffset dx="0" dy="2" in="SourceAlpha" result="shadowOffsetOuter1"></feOffset>
            <feGaussianBlur stdDeviation="12" in="shadowOffsetOuter1" result="shadowBlurOuter1"></feGaussianBlur>
            <feColorMatrix values="0 0 0 0 0   0 0 0 0 0   0 0 0 0 0  0 0 0 0.5 0" type="matrix" in="shadowBlurOuter1" result="shadowMatrixOuter1"></feColorMatrix>
            <feMerge>
                <feMergeNode in="shadowMatrixOuter1"></feMergeNode>
                <feMergeNode in="SourceGraphic"></feMergeNode>
            </feMerge>
        </filter>
    </defs>
    <g id="Landings" stroke="none" stroke-width="1" fill="none" fill-rule="evenodd">
        <g id="Overview" transform="translate(-855.000000, -4841.000000)">
            <g id="Group-15" transform="translate(0.000000, 4384.000000)">
                <g id="Group-3-Copy">
                    <g id="Group-14-Copy-4" filter="url(#filter-1)" transform="translate(566.000000, 330.000000)">
                        <g id="Group-18" transform="translate(-0.000000, 0.000000)">
                            <g id="Feature-2" transform="translate(305.000000, 141.000000)">
                                <g id="Icon">
                                    <rect id="Rectangle-9" x="0" y="0" width="64" height="64"></rect>
                                    <path d="M57.7040518,24.9 C57.2040518,26.7 55.9040518,28 54.1040518,28.4 L50.2040518,29.4 L44.4040518,45.6 C44.3040518,45.9 44.1040518,46.1 43.8040518,46.2 L10.1040518,57.8 C10.0040518,57.8 9.90405184,57.9 9.80405184,57.9 C9.50405184,57.9 9.30405184,57.8 9.10405184,57.6 L7.70405184,56.2 L7.70405184,56.2 L7.70405184,56.2 L6.30405184,54.8 C6.00405184,54.5 5.90405184,54.1 6.10405184,53.8 L17.7040518,20.1 C17.8040518,19.8 18.0040518,19.6 18.3040518,19.5 L34.5040518,13.7 L35.5040518,9.8 C36.1040518,7.6 38.1040518,6 40.4040518,6 C41.7040518,6 43.0040518,6.5 43.9040518,7.5 L56.6040518,20.2 C57.7040518,21.3 58.2040518,23.1 57.7040518,24.9 L57.7040518,24.9 Z M35.0040518,15.6 L19.3040518,21.2 L8.00405184,53.9 L8.30405184,54.2 L26.8040518,35.7 C26.3040518,34.9 26.0040518,33.9 26.0040518,32.9 C26.0040518,31.6 26.5040518,30.3 27.5040518,29.4 C28.4040518,28.5 29.7040518,27.9 31.0040518,27.9 C32.3040518,27.9 33.6040518,28.4 34.5040518,29.4 C36.5040518,31.4 36.5040518,34.5 34.5040518,36.5 C33.6040518,37.4 32.3040518,38 31.0040518,38 C30.0040518,38 29.1040518,37.7 28.2040518,37.2 L9.70405184,55.7 L10.0040518,56 L42.7040518,44.7 L48.3040518,29 L35.0040518,15.6 L35.0040518,15.6 Z M33.1040518,34.9 C34.3040518,33.7 34.3040518,31.8 33.1040518,30.6 C32.5040518,30 31.8040518,29.7 31.0040518,29.7 C30.2040518,29.7 29.4040518,30 28.9040518,30.6 C28.3040518,31.2 28.0040518,31.9 28.0040518,32.7 C28.0040518,33.5 28.3040518,34.3 28.9040518,34.8 C30.0040518,36.1 32.0040518,36.1 33.1040518,34.9 L33.1040518,34.9 Z M55.0040518,21.4 L42.4040518,8.8 C41.8040518,8.2 41.1040518,7.9 40.3040518,7.9 C39.2040518,7.9 37.8040518,8.6 37.4040518,10.2 L36.4040518,14.1 L49.8040518,27.5 L53.7040518,26.5 C54.8040518,26.2 55.6040518,25.4 55.9040518,24.4 C56.1040518,23.3 55.8040518,22.2 55.0040518,21.4 L55.0040518,21.4 Z" fill="#FFFFFF"></path>
                                </g>
                            </g>
                        </g>
                    </g>
                </g>
            </g>
        </g>
    </g>
</svg>