<?xml version="1.0" encoding="UTF-8"?>
<svg width="106px" height="91px" viewBox="0 0 106 91" version="1.1" xmlns="http://www.w3.org/2000/svg" xmlns:xlink="http://www.w3.org/1999/xlink">
    <!-- Generator: sketchtool 42 (36781) - http://www.bohemiancoding.com/sketch -->
    <title>86DBF401-B22A-47B1-8A7A-2284CE87B1C0</title>
    <desc>Created with sketchtool.</desc>
    <defs>
        <filter x="-50%" y="-50%" width="200%" height="200%" filterUnits="objectBoundingBox" id="filter-1">
            <feOffset dx="0" dy="2" in="SourceAlpha" result="shadowOffsetOuter1"></feOffset>
            <feGaussianBlur stdDeviation="12" in="shadowOffsetOuter1" result="shadowBlurOuter1"></feGaussianBlur>
            <feColorMatrix values="0 0 0 0 0   0 0 0 0 0   0 0 0 0 0  0 0 0 0.5 0" type="matrix" in="shadowBlurOuter1" result="shadowMatrixOuter1"></feColorMatrix>
            <feMerge>
                <feMergeNode in="shadowMatrixOuter1"></feMergeNode>
                <feMergeNode in="SourceGraphic"></feMergeNode>
            </feMerge>
        </filter>
    </defs>
    <g id="Landings" stroke="none" stroke-width="1" fill="none" fill-rule="evenodd">
        <g id="Overview" transform="translate(-546.000000, -4844.000000)">
            <g id="Group-15" transform="translate(0.000000, 4384.000000)">
                <g id="Group-3-Copy">
                    <g id="Group-14-Copy-4" filter="url(#filter-1)" transform="translate(566.000000, 330.000000)">
                        <g id="Group-18" transform="translate(-0.000000, 0.000000)">
                            <g id="Feature-1" transform="translate(1.000000, 141.000000)">
                                <g id="Icon">
                                    <rect id="Rectangle-9" x="0" y="0" width="64" height="64"></rect>
                                    <path d="M58,54 L6,54 C3.8,54 2,52.2 2,50 L2,47 C2,46.4 2.4,46 3,46 L3.2,46 C2.2,35.7 4.9,26 10.8,19.3 C16.1,13.3 23.6,10 32,10 C40.4,10 47.9,13.3 53.2,19.3 C59.1,26 61.9,35.7 60.8,46 L61,46 C61.6,46 62,46.4 62,47 L62,50 C62,52.2 60.2,54 58,54 L58,54 Z M51.7,20.6 C50,18.7 48.1,17.1 46,15.8 C45.9,16.2 45.5,16.5 45.1,16.5 C44.5,16.5 44.1,16.1 44.1,15.5 L44.1,14.7 C41.1,13.2 37.7,12.3 34.1,12 L34.1,12.3 C34.1,12.9 33.7,13.3 33.1,13.3 C32.5,13.3 32.1,12.9 32.1,12.3 L32.1,11.9 C27.8,11.9 23.7,12.8 20.1,14.6 L20.1,15.4 C20.1,16 19.7,16.4 19.1,16.4 C18.6,16.4 18.3,16.1 18.2,15.7 C16.1,17 14.1,18.6 12.4,20.5 C6.8,26.8 4.3,36.1 5.3,45.9 L58.9,45.9 C59.8,36.2 57.3,27 51.7,20.6 L51.7,20.6 Z M60,48 L4,48 L4,50 C4,51.1 4.9,52 6,52 L58,52 C59.1,52 60,51.1 60,50 L60,48 L60,48 Z M45,42 C42.2,42 40,39.8 40,37 C40,34.6 41.7,32.6 44,32.1 L44,31.7 C44,31.1 44.4,30.7 45,30.7 C45.6,30.7 46,31.1 46,31.7 L46,32.1 C48.3,32.6 50,34.6 50,37 C50,39.8 47.8,42 45,42 L45,42 Z M45,34 C43.3,34 42,35.3 42,37 C42,38.7 43.3,40 45,40 C46.7,40 48,38.7 48,37 C48,35.3 46.7,34 45,34 L45,34 Z M45,30 C44.4,30 44,29.6 44,29 L44,27.2 C44,26.6 44.4,26.2 45,26.2 C45.6,26.2 46,26.6 46,27.2 L46,29 C46,29.6 45.6,30 45,30 L45,30 Z M45,25.5 C44.4,25.5 44,25.1 44,24.5 L44,22.7 C44,22.1 44.4,21.7 45,21.7 C45.6,21.7 46,22.1 46,22.7 L46,24.5 C46,25.1 45.6,25.5 45,25.5 L45,25.5 Z M45,21 C44.4,21 44,20.6 44,20 L44,18.2 C44,17.6 44.4,17.2 45,17.2 C45.6,17.2 46,17.6 46,18.2 L46,20 C46,20.6 45.6,21 45,21 L45,21 Z M33,31 C30.2,31 28,28.8 28,26 C28,23.6 29.7,21.6 32,21.1 L32,20.9 C32,20.3 32.4,19.9 33,19.9 C33.6,19.9 34,20.3 34,20.9 L34,21.1 C36.3,21.6 38,23.6 38,26 C38,28.7 35.8,31 33,31 L33,31 Z M33,23 C31.3,23 30,24.3 30,26 C30,27.7 31.3,29 33,29 C34.7,29 36,27.7 36,26 C36,24.3 34.7,23 33,23 L33,23 Z M33,18.7 C32.4,18.7 32,18.3 32,17.7 L32,15.6 C32,15 32.4,14.6 33,14.6 C33.6,14.6 34,15 34,15.6 L34,17.7 C34,18.3 33.6,18.7 33,18.7 L33,18.7 Z M23.6,36.4 L24.3,40.6 C24.3,40.7 24.4,40.8 24.4,41 C24.4,41.6 24,42 23.4,42 L23.4,42 C23.2,42 23.1,42 22.9,41.9 L19,39.8 L15.1,41.8 C14.8,42 14.4,41.9 14,41.7 C13.7,41.5 13.5,41.1 13.6,40.7 L14.4,36.4 L11.3,33.3 C11,33 10.9,32.6 11.1,32.3 C11.2,31.9 11.5,31.7 11.9,31.6 L16.3,31 L18.1,27.4 L18.1,26.5 C18.1,25.9 18.5,25.5 19.1,25.5 C19.7,25.5 20.1,25.9 20.1,26.5 L20.1,27.1 L22,31 L26.4,31.7 C26.8,31.8 27.1,32 27.2,32.4 C27.3,32.8 27.2,33.2 26.9,33.4 L23.6,36.4 L23.6,36.4 Z M21.1,32.8 C20.8,32.7 20.5,32.5 20.4,32.2 L19.1,29.6 L17.8,32.2 C17.7,32.5 17.4,32.7 17,32.7 L14.1,33.1 L16.2,35.2 C16.4,35.4 16.5,35.8 16.5,36.1 L16,39 L18.6,37.7 C18.7,37.6 18.9,37.6 19.1,37.6 C19.3,37.6 19.4,37.6 19.6,37.7 L22.2,39.1 L21.7,36.2 C21.6,35.9 21.8,35.5 22,35.3 L24.1,33.3 L21.1,32.8 L21.1,32.8 Z M19,24.9 C18.4,24.9 18,24.5 18,23.9 L18,22.2 C18,21.6 18.4,21.2 19,21.2 C19.6,21.2 20,21.6 20,22.2 L20,23.9 C20,24.5 19.6,24.9 19,24.9 L19,24.9 Z M19,20.7 C18.4,20.7 18,20.3 18,19.7 L18,18 C18,17.4 18.4,17 19,17 C19.6,17 20,17.4 20,18 L20,19.7 C20,20.3 19.6,20.7 19,20.7 L19,20.7 Z" fill="#FFFFFF"></path>
                                </g>
                            </g>
                        </g>
                    </g>
                </g>
            </g>
        </g>
    </g>
</svg>