<?xml version="1.0" encoding="UTF-8"?>
<svg width="42px" height="51px" viewBox="0 0 42 51" version="1.1" xmlns="http://www.w3.org/2000/svg" xmlns:xlink="http://www.w3.org/1999/xlink">
    <!-- Generator: sketchtool 42 (36781) - http://www.bohemiancoding.com/sketch -->
    <title>34B322F8-F6F7-4CD4-955F-DEACAE18B7AE</title>
    <desc>Created with sketchtool.</desc>
    <defs></defs>
    <g id="Landings" stroke="none" stroke-width="1" fill="none" fill-rule="evenodd">
        <g id="Overview" transform="translate(-523.000000, -5908.000000)">
            <g id="Group-16" transform="translate(512.000000, 5901.000000)">
                <g id="Android">
                    <path d="M17.4172308,37.1922728 C17.4172308,38.9477479 15.9811868,40.3751507 14.2086154,40.3751507 C12.4389451,40.3751507 11,38.9506258 11,37.1922728 L11,24.4665172 C11,22.7110421 12.436044,21.2836393 14.2086154,21.2836393 C15.9782857,21.2836393 17.4172308,22.7081642 17.4172308,24.4665172 L17.4172308,37.1922728 Z M44.6788571,46.7380285 L41.4702418,46.7380285 L41.4702418,54.6923452 C41.4702418,56.4478203 40.0341978,57.8752231 38.2616264,57.8752231 C36.491956,57.8752231 35.053011,56.4506982 35.053011,54.6923452 L35.053011,46.7380285 L28.6386813,46.7380285 L28.6386813,54.6923452 C28.6386813,56.4478203 27.2026374,57.8752231 25.4300659,57.8752231 C23.6603956,57.8752231 22.2214505,56.4506982 22.2214505,54.6923452 L22.2214505,46.7380285 L19.0128352,46.7380285 L19.0128352,22.8750783 L44.6701538,22.8750783 L44.6701538,46.7380285 L44.6788571,46.7380285 Z M19.0215385,21.2865172 C19.0215385,17.0704991 21.0958242,13.3465896 24.2754286,11.029938 L22.6276044,8.19815518 C22.4071209,7.81540405 22.5405714,7.33192894 22.9206154,7.11033618 C23.3064615,6.89162125 23.7938462,7.02112351 24.0172308,7.40099681 L25.6244396,10.1637117 C27.4695385,9.14208278 29.5902418,8.55788369 31.8501978,8.55788369 C34.1101538,8.55788369 36.2308571,9.14208278 38.075956,10.1608339 L39.6802637,7.40099681 C39.9007473,7.01824568 40.3939341,6.88586559 40.7768791,7.10745835 C41.1627253,7.32905111 41.2961758,7.81252622 41.0727912,8.19527735 L39.424967,11.0270602 C42.6045714,13.3437117 44.6788571,17.0676212 44.6788571,21.2836393 L19.0215385,21.2836393 L19.0215385,21.2865172 Z M52.6974945,37.1922728 C52.6974945,38.9477479 51.2614505,40.3751507 49.4888791,40.3751507 C47.7192088,40.3751507 46.2802637,38.9506258 46.2802637,37.1922728 L46.2802637,24.4665172 C46.2802637,22.7110421 47.7163077,21.2836393 49.4888791,21.2836393 C51.2585495,21.2836393 52.6974945,22.7081642 52.6974945,24.4665172 L52.6974945,37.1922728 Z M36.6602198,16.5150783 C37.5462545,16.5150783 38.2645275,15.8025668 38.2645275,14.9236393 C38.2645275,14.0447119 37.5462545,13.3322004 36.6602198,13.3322004 C35.7741851,13.3322004 35.0559121,14.0447119 35.0559121,14.9236393 C35.0559121,15.8025668 35.7741851,16.5150783 36.6602198,16.5150783 Z M27.0401758,16.5150783 C27.9262105,16.5150783 28.6444835,15.8025668 28.6444835,14.9236393 C28.6444835,14.0447119 27.9262105,13.3322004 27.0401758,13.3322004 C26.1541412,13.3322004 25.4358681,14.0447119 25.4358681,14.9236393 C25.4358681,15.8025668 26.1541412,16.5150783 27.0401758,16.5150783 Z" id="Combined-Shape" fill="#333333"></path>
                    <rect id="Rectangle-29" x="0" y="0" width="64" height="64"></rect>
                </g>
            </g>
        </g>
    </g>
</svg>