<?xml version="1.0" encoding="UTF-8"?>
<svg width="39px" height="48px" viewBox="0 0 39 48" version="1.1" xmlns="http://www.w3.org/2000/svg" xmlns:xlink="http://www.w3.org/1999/xlink">
    <!-- Generator: sketchtool 42 (36781) - http://www.bohemiancoding.com/sketch -->
    <title>E0FA8BF5-5037-4D6F-8471-109005F92E10</title>
    <desc>Created with sketchtool.</desc>
    <defs></defs>
    <g id="Landings" stroke="none" stroke-width="1" fill="none" fill-rule="evenodd">
        <g id="Overview" transform="translate(-621.000000, -5907.000000)">
            <g id="Group-16" transform="translate(512.000000, 5901.000000)">
                <g id="Apple" transform="translate(96.000000, 0.000000)">
                    <path d="M45.3924301,31.5009 C45.4594148,38.7648 51.7157889,41.1819 51.785453,41.2131 C51.7324606,41.3835 50.7857431,44.6577 48.4892087,48.0399 C46.5034835,50.964 44.4433308,53.8773 41.1973995,53.9379 C38.0077354,53.997 36.981827,52.0317 33.3357736,52.0317 C29.6903156,52.0317 28.5509797,53.8767 25.5316056,53.9967 C22.3985064,54.1161 20.0126591,50.8347 18.0108576,47.9217 C13.9203232,41.9619 10.794369,31.0815 14.9920789,23.7372 C17.0766438,20.0901 20.8027812,17.781 24.847766,17.721 C27.9243003,17.6622 30.8287583,19.8072 32.7093919,19.8072 C34.5888347,19.8072 38.1178881,17.2278 41.8282469,17.6067 C43.3808041,17.6715 47.740766,18.2385 50.5398347,22.3677 C50.3144682,22.5087 45.3379492,25.4277 45.3924301,31.5006 M39.3977431,13.6638 C41.0619415,11.6349 42.1813308,8.8104 41.8758805,6 C39.4781247,6.0972 36.5787278,7.6101 34.8588576,9.6378 C33.3176133,11.4336 31.9680942,14.3079 32.3318957,17.0628 C35.0044377,17.271 37.7347354,15.6942 39.3980408,13.6638" fill="#333333"></path>
                    <rect id="Rectangle-29-Copy" x="0" y="0" width="64" height="64"></rect>
                </g>
            </g>
        </g>
    </g>
</svg>