<?xml version="1.0" encoding="UTF-8"?>
<svg width="56px" height="44px" viewBox="0 0 56 44" version="1.1" xmlns="http://www.w3.org/2000/svg" xmlns:xlink="http://www.w3.org/1999/xlink">
    <!-- Generator: sketchtool 42 (36781) - http://www.bohemiancoding.com/sketch -->
    <title>D0159CC2-4027-4693-AD2A-4647401B4A73</title>
    <desc>Created with sketchtool.</desc>
    <defs></defs>
    <g id="Landings" stroke="none" stroke-width="1" fill="none" fill-rule="evenodd">
        <g id="Overview" transform="translate(-708.000000, -5911.000000)">
            <g id="Group-16" transform="translate(512.000000, 5901.000000)">
                <g id="Desktop" transform="translate(192.000000, 0.000000)">
                    <rect id="Rectangle-29-Copy-2" x="0" y="0" width="64" height="64"></rect>
                    <path d="M47.848,54 L16.208,54 C15.144,54 14.248,53.0985915 14.248,52.028169 C14.248,50.9577465 15.144,50.056338 16.208,50.056338 L47.848,50.056338 C48.912,50.056338 49.808,50.9577465 49.808,52.028169 C49.808,53.0985915 48.912,54 47.848,54 Z M58.04,48.084507 L5.96,48.084507 C4.896,48.084507 4,47.1830986 4,46.1126761 L4,11.971831 C4,10.9014085 4.896,10 5.96,10 L58.04,10 C59.104,10 60,10.9014085 60,11.971831 L60,46.1126761 C60,47.1830986 59.104,48.084507 58.04,48.084507 Z M7.92,44.1408451 L56.08,44.1408451 L56.08,13.943662 L7.92,13.943662 L7.92,44.1408451 Z" id="Combined-Shape" fill="#333333" fill-rule="nonzero"></path>
                </g>
            </g>
        </g>
    </g>
</svg>