<?xml version="1.0" encoding="UTF-8"?>
<svg width="64px" height="60px" viewBox="0 0 64 60" version="1.1" xmlns="http://www.w3.org/2000/svg" xmlns:xlink="http://www.w3.org/1999/xlink">
    <!-- Generator: sketchtool 42 (36781) - http://www.bohemiancoding.com/sketch -->
    <title>CAB25C15-60D2-4950-8F46-096A79831D25</title>
    <desc>Created with sketchtool.</desc>
    <defs></defs>
    <g id="Landings" stroke="none" stroke-width="1" fill="none" fill-rule="evenodd">
        <g id="Overview" transform="translate(-608.000000, -6301.000000)">
            <g id="Our-Customers-Copy" transform="translate(-160.000000, 6159.000000)">
                <g id="Title" transform="translate(339.000000, 140.000000)">
                    <g id="Icon" transform="translate(429.000000, 0.000000)">
                        <rect id="Rectangle-10" x="0" y="0" width="64" height="64"></rect>
                        <path d="M1.79569255,61.9071012 C1.94492283,61.8478759 16.8904273,56.0231956 31.9997976,56.0231956 C47.1082968,56.0231956 62.0550209,61.8479625 62.204861,61.9071012 C62.363674,61.9695301 62.527627,61.9987964 62.6876597,61.9987964 C63.2101835,61.9987964 63.703262,61.6875176 63.9068528,61.1764835 C64.1745613,60.5069959 63.8454358,59.749623 63.1730719,59.4835424 C62.5621251,59.2430048 48.4478847,53.7396473 33.3115954,53.4309661 L33.3115954,48.3808029 L48.4517178,48.3808029 C48.4555509,48.3801968 48.4606908,48.3801968 48.4644368,48.3808029 C49.1893318,48.3808029 49.7758861,47.7972092 49.7758861,47.0774149 C49.7758861,46.8527226 49.7183022,46.6414514 49.6183798,46.4568487 L33.2283122,2.84707667 C33.0362207,2.33725479 32.5470624,2 31.9997976,2 C31.4522714,2 30.9631132,2.33734138 30.7710217,2.84707667 L14.3200598,46.6210169 C14.1702197,47.0213067 14.226584,47.4693924 14.4712066,47.8200681 C14.7164391,48.1714365 15.119178,48.3808029 15.5489228,48.3808029 L30.6884354,48.3808029 L30.6884354,53.4309661 C15.5508394,53.7396473 1.43781863,59.2430048 0.827568697,59.4835424 C0.154594996,59.7495364 -0.174530524,60.5069093 0.0930908624,61.1764835 C0.360712249,61.8447588 1.12210903,62.174394 1.79569255,61.9071012 Z M17.4385633,45.7739402 L31.9997976,7.02842998 L46.5613804,45.7739402 L33.3115954,45.7739402 L33.3115954,37.4403267 L38.2946499,32.4868807 C38.806981,31.9777515 38.806981,31.1529276 38.2946499,30.6437119 C37.7824058,30.1345827 36.9525356,30.1345827 36.4402044,30.6437119 L33.3115954,33.753989 L33.3115954,25.1906612 C33.3115954,24.4708668 32.7237344,23.8871866 31.9997976,23.8871866 C31.2755995,23.8871866 30.6883483,24.4707802 30.6883483,25.1906612 L30.6883483,38.4726121 L27.8926108,35.6938751 C27.3803668,35.1847459 26.5504965,35.1847459 26.0381654,35.6938751 C25.5259213,36.2023982 25.5259213,37.0285209 26.0381654,37.5370439 L30.6882612,42.1588633 L30.6882612,45.7739402 L17.4385633,45.7739402 Z" id="Shape" fill="#FFFFFF" fill-rule="nonzero"></path>
                    </g>
                </g>
            </g>
        </g>
    </g>
</svg>